<svg width="50" height="48" viewBox="0 0 50 48" fill="none" xmlns="http://www.w3.org/2000/svg">
<path d="M32.8483 24C32.8483 25.9891 32.0458 27.8968 30.6175 29.3033C29.1891 30.7098 27.2519 31.5 25.2319 31.5C23.2119 31.5 21.2746 30.7098 19.8463 29.3033C18.4179 27.8968 17.6155 25.9891 17.6155 24C17.6155 23.5725 17.6612 23.155 17.7399 22.75H15.0767V32.7425C15.0767 33.4375 15.6479 34 16.3537 34H34.1126C34.4509 33.9993 34.775 33.8666 35.014 33.6308C35.2529 33.3951 35.3871 33.0756 35.3871 32.7425V22.75H32.7239C32.8026 23.155 32.8483 23.5725 32.8483 24ZM25.2319 29C25.8989 28.9998 26.5593 28.8703 27.1754 28.6188C27.7915 28.3673 28.3513 27.9988 28.8228 27.5343C29.2943 27.0698 29.6683 26.5183 29.9234 25.9115C30.1785 25.3046 30.3097 24.6543 30.3095 23.9975C30.3093 23.3407 30.1778 22.6904 29.9224 22.0837C29.667 21.477 29.2928 20.9257 28.821 20.4614C28.3493 19.9972 27.7893 19.6289 27.173 19.3777C26.5568 19.1265 25.8963 18.9973 25.2293 18.9975C23.8823 18.9978 22.5907 19.5251 21.6384 20.4632C20.6862 21.4014 20.1514 22.6736 20.1517 24C20.1521 25.3264 20.6875 26.5984 21.6402 27.5361C22.5929 28.4737 23.8849 29.0003 25.2319 29ZM31.325 18.75H34.369C34.5713 18.75 34.7652 18.6711 34.9085 18.5305C35.0517 18.3899 35.1325 18.1991 35.1332 18V15.0025C35.1332 14.8029 35.0527 14.6115 34.9094 14.4704C34.7661 14.3293 34.5717 14.25 34.369 14.25H31.325C31.1223 14.25 30.928 14.3293 30.7847 14.4704C30.6413 14.6115 30.5608 14.8029 30.5608 15.0025V18C30.5634 18.4125 30.9061 18.75 31.325 18.75ZM25.2319 0C18.7679 0 12.5687 2.52856 7.99794 7.02944C3.42721 11.5303 0.859406 17.6348 0.859406 24C0.859406 30.3652 3.42721 36.4697 7.99794 40.9706C12.5687 45.4714 18.7679 48 25.2319 48C28.4325 48 31.6018 47.3792 34.5588 46.1731C37.5158 44.967 40.2026 43.1992 42.4658 40.9706C44.729 38.742 46.5243 36.0962 47.7491 33.1844C48.974 30.2726 49.6044 27.1517 49.6044 24C49.6044 20.8483 48.974 17.7274 47.7491 14.8156C46.5243 11.9038 44.729 9.25804 42.4658 7.02944C40.2026 4.80083 37.5158 3.033 34.5588 1.82689C31.6018 0.620778 28.4325 0 25.2319 0ZM37.9259 33.7225C37.9259 35.25 36.6565 36.5 35.1053 36.5H15.3585C13.8073 36.5 12.5379 35.25 12.5379 33.7225V14.2775C12.5379 12.75 13.8073 11.5 15.3585 11.5H35.1053C36.6565 11.5 37.9259 12.75 37.9259 14.2775V33.7225Z" fill="white"/>
</svg>
