<svg width="68" height="68" viewBox="0 0 68 68" fill="none" xmlns="http://www.w3.org/2000/svg">
<path d="M44.4999 34C44.4999 36.7848 43.3937 39.4555 41.4245 41.4246C39.4554 43.3938 36.7847 44.5 33.9999 44.5C31.2151 44.5 28.5444 43.3938 26.5753 41.4246C24.6061 39.4555 23.4999 36.7848 23.4999 34C23.4999 33.4015 23.5629 32.817 23.6714 32.25H19.9999V46.2395C19.9999 47.2125 20.7874 48 21.7604 48H46.2429C46.7092 47.9991 47.1561 47.8132 47.4855 47.4831C47.8149 47.1531 47.9999 46.7058 47.9999 46.2395V32.25H44.3284C44.4369 32.817 44.4999 33.4015 44.4999 34ZM33.9999 41C34.9194 40.9998 35.8298 40.8185 36.6792 40.4664C37.5286 40.1143 38.3004 39.5984 38.9504 38.948C39.6004 38.2977 40.1159 37.5257 40.4676 36.6761C40.8193 35.8265 41.0001 34.916 40.9999 33.9965C40.9997 33.077 40.8183 32.1666 40.4663 31.3172C40.1142 30.4678 39.5982 29.6961 38.9479 29.0461C38.2976 28.396 37.5256 27.8805 36.676 27.5288C35.8264 27.1772 34.9159 26.9963 33.9964 26.9965C32.1394 26.997 30.3587 27.7351 29.0459 29.0485C27.7332 30.3619 26.9959 32.143 26.9964 34C26.9969 35.857 27.735 37.6377 29.0484 38.9505C30.3618 40.2633 32.1429 41.0005 33.9999 41ZM42.3999 26.65H46.5964C46.8752 26.65 47.1426 26.5395 47.3401 26.3427C47.5376 26.1459 47.649 25.8788 47.6499 25.6V21.4035C47.6499 21.1241 47.5389 20.8562 47.3413 20.6586C47.1438 20.461 46.8758 20.35 46.5964 20.35H42.3999C42.1205 20.35 41.8525 20.461 41.655 20.6586C41.4574 20.8562 41.3464 21.1241 41.3464 21.4035V25.6C41.3499 26.1775 41.8224 26.65 42.3999 26.65ZM33.9999 0.400024C25.0886 0.400024 16.5423 3.94001 10.2411 10.2412C3.93989 16.5425 0.399902 25.0888 0.399902 34C0.399902 42.9113 3.93989 51.4576 10.2411 57.7588C16.5423 64.06 25.0886 67.6 33.9999 67.6C38.4123 67.6 42.7815 66.7309 46.8581 65.0424C50.9346 63.3538 54.6386 60.8789 57.7587 57.7588C60.8787 54.6388 63.3537 50.9347 65.0423 46.8582C66.7308 42.7816 67.5999 38.4124 67.5999 34C67.5999 29.5876 66.7308 25.2184 65.0423 21.1419C63.3537 17.0653 60.8787 13.3613 57.7587 10.2412C54.6386 7.12119 50.9346 4.64623 46.8581 2.95767C42.7815 1.26911 38.4123 0.400024 33.9999 0.400024ZM51.4999 47.6115C51.4999 49.75 49.7499 51.5 47.6114 51.5H20.3884C18.2499 51.5 16.4999 49.75 16.4999 47.6115V20.3885C16.4999 18.25 18.2499 16.5 20.3884 16.5H47.6114C49.7499 16.5 51.4999 18.25 51.4999 20.3885V47.6115Z" fill="black"/>
</svg>
