<svg width="68" height="68" viewBox="0 0 68 68" fill="none" xmlns="http://www.w3.org/2000/svg">
<path d="M33.9999 0.39978C15.4429 0.39978 0.399902 15.4428 0.399902 33.9998C0.399902 52.5568 15.4429 67.5998 33.9999 67.5998C52.5569 67.5998 67.5999 52.5568 67.5999 33.9998C67.5999 15.4428 52.5569 0.39978 33.9999 0.39978ZM47.6674 27.9238C47.6814 28.2108 47.6849 28.4978 47.6849 28.7778C47.6849 37.5278 41.0314 47.6113 28.8584 47.6113C25.2614 47.6173 21.7393 46.5842 18.7154 44.6363C19.2299 44.6993 19.7584 44.7238 20.2939 44.7238C23.3949 44.7238 26.2474 43.6703 28.5119 41.8923C27.1319 41.8652 25.7948 41.4082 24.6868 40.5851C23.5788 39.762 22.7553 38.6137 22.3309 37.3003C23.3219 37.4887 24.3429 37.4492 25.3164 37.1848C23.8186 36.8819 22.4716 36.0703 21.5039 34.8876C20.5362 33.7049 20.0073 32.2239 20.0069 30.6958V30.6153C20.8994 31.1088 21.9214 31.4098 23.0064 31.4448C21.6022 30.51 20.6082 29.0741 20.2276 27.4307C19.847 25.7874 20.1086 24.0607 20.9589 22.6038C22.6212 24.6478 24.6943 26.3199 27.0439 27.5119C29.3935 28.7038 31.9672 29.3891 34.5984 29.5233C34.2639 28.1034 34.4079 26.6127 35.0079 25.283C35.608 23.9534 36.6306 22.8592 37.9166 22.1707C39.2027 21.4822 40.6802 21.2378 42.1195 21.4756C43.5588 21.7135 44.8792 22.4201 45.8754 23.4858C47.3565 23.1927 48.7768 22.6495 50.0754 21.8793C49.5818 23.4128 48.5483 24.7149 47.1669 25.5438C48.4789 25.3858 49.7599 25.0331 50.9679 24.4973C50.0806 25.8269 48.9629 26.9873 47.6674 27.9238Z" fill="black"/>
</svg>
