<svg width="50" height="48" viewBox="0 0 50 48" fill="none" xmlns="http://www.w3.org/2000/svg">
<path d="M25.3359 -0.000244141C11.8751 -0.000244141 0.963379 10.7448 0.963379 23.9998C0.963379 37.2548 11.8751 47.9998 25.3359 47.9998C38.7966 47.9998 49.7083 37.2548 49.7083 23.9998C49.7083 10.7448 38.7966 -0.000244141 25.3359 -0.000244141ZM35.2499 19.6598C35.26 19.8648 35.2626 20.0698 35.2626 20.2698C35.2626 26.5198 30.4363 33.7223 21.6064 33.7223C18.9972 33.7265 16.4424 32.9886 14.2489 31.5973C14.6221 31.6423 15.0055 31.6598 15.3939 31.6598C17.6433 31.6598 19.7124 30.9073 21.355 29.6373C20.354 29.6179 19.3841 29.2915 18.5804 28.7036C17.7767 28.1156 17.1793 27.2954 16.8715 26.3573C17.5904 26.4919 18.3309 26.4636 19.0371 26.2748C17.9506 26.0584 16.9736 25.4787 16.2716 24.6339C15.5696 23.7891 15.186 22.7313 15.1857 21.6398V21.5823C15.8331 21.9348 16.5745 22.1498 17.3615 22.1748C16.3429 21.5071 15.6219 20.4814 15.3458 19.3076C15.0697 18.1337 15.2595 16.9004 15.8763 15.8598C17.0821 17.3198 18.5858 18.5141 20.2902 19.3655C21.9945 20.2169 23.8614 20.7064 25.77 20.8023C25.5273 19.788 25.6318 18.7233 26.0671 17.7735C26.5023 16.8238 27.2441 16.0422 28.177 15.5504C29.1098 15.0586 30.1816 14.8841 31.2256 15.0539C32.2696 15.2238 33.2274 15.7286 33.95 16.4898C35.0243 16.2804 36.0546 15.8924 36.9966 15.3423C36.6385 16.4376 35.8888 17.3677 34.8868 17.9598C35.8385 17.8469 36.7677 17.5949 37.644 17.2123C37.0003 18.162 36.1896 18.9909 35.2499 19.6598Z" fill="white"/>
</svg>
