<svg width="50" height="48" viewBox="0 0 50 48" fill="none" xmlns="http://www.w3.org/2000/svg">
<path d="M24.7839 -0.000244141C11.3232 -0.000244141 0.411438 10.7448 0.411438 23.9998C0.411438 37.2548 11.3232 47.9998 24.7839 47.9998C38.2446 47.9998 49.1564 37.2548 49.1564 23.9998C49.1564 10.7448 38.2446 -0.000244141 24.7839 -0.000244141ZM34.1572 27.0773C34.1572 27.0773 36.3126 29.1723 36.8432 30.1448C36.8585 30.1648 36.8661 30.1848 36.8711 30.1948C37.0869 30.5523 37.1377 30.8298 37.0311 31.0373C36.8534 31.3823 36.2441 31.5523 36.0359 31.5673H32.2277C31.9636 31.5673 31.4102 31.4998 30.7399 31.0448C30.2246 30.6898 29.7168 30.1073 29.2217 29.5398C28.483 28.6948 27.8432 27.9648 27.1983 27.9648C27.1164 27.9646 27.035 27.9773 26.9571 28.0023C26.4697 28.1573 25.8451 28.8423 25.8451 30.6673C25.8451 31.2373 25.3882 31.5648 25.0657 31.5648H23.3216C22.7275 31.5648 19.6327 31.3598 16.8908 28.5123C13.5345 25.0248 10.5133 18.0298 10.4879 17.9648C10.2975 17.5123 10.691 17.2698 11.1201 17.2698H14.9664C15.4792 17.2698 15.6468 17.5773 15.7636 17.8498C15.9007 18.1673 16.4033 19.4298 17.2284 20.8498C18.5664 23.1648 19.3864 24.1048 20.044 24.1048C20.1673 24.1033 20.2884 24.0724 20.3969 24.0148C21.255 23.5448 21.095 20.5323 21.057 19.9073C21.057 19.7898 21.0544 18.5598 20.6152 17.9698C20.3004 17.5423 19.7647 17.3798 19.4397 17.3198C19.5713 17.141 19.7446 16.9961 19.945 16.8973C20.534 16.6073 21.5952 16.5648 22.6488 16.5648H23.2353C24.3777 16.5798 24.6722 16.6523 25.086 16.7548C25.9238 16.9523 25.9416 17.4848 25.868 19.3073C25.8451 19.8248 25.8223 20.4098 25.8223 21.0998C25.8223 21.2498 25.8147 21.4098 25.8147 21.5798C25.7893 22.5073 25.7588 23.5598 26.424 23.9923C26.5107 24.0458 26.611 24.0744 26.7134 24.0748C26.9444 24.0748 27.6401 24.0748 29.5239 20.8923C30.1048 19.8679 30.6097 18.8034 31.0344 17.7073C31.0725 17.6423 31.1842 17.4423 31.3163 17.3648C31.4137 17.3158 31.5217 17.291 31.6311 17.2923H36.1527C36.6452 17.2923 36.9829 17.3648 37.0463 17.5523C37.158 17.8498 37.026 18.7573 34.962 21.5098L34.0404 22.7073C32.1693 25.1223 32.1693 25.2448 34.1572 27.0773V27.0773Z" fill="white"/>
</svg>
