<svg width="68" height="68" viewBox="0 0 68 68" fill="none" xmlns="http://www.w3.org/2000/svg">
<path d="M34.0001 0.39978C15.4431 0.39978 0.400146 15.4428 0.400146 33.9998C0.400146 52.5568 15.4431 67.5998 34.0001 67.5998C52.5571 67.5998 67.6002 52.5568 67.6002 33.9998C67.6002 15.4428 52.5571 0.39978 34.0001 0.39978ZM46.9221 38.3083C46.9221 38.3083 49.8936 41.2413 50.6251 42.6028C50.6461 42.6308 50.6566 42.6588 50.6636 42.6728C50.9611 43.1733 51.0312 43.5618 50.8841 43.8523C50.6391 44.3353 49.7991 44.5733 49.5121 44.5943H44.2621C43.8981 44.5943 43.1351 44.4998 42.2111 43.8628C41.5006 43.3658 40.8006 42.5503 40.1181 41.7558C39.0996 40.5728 38.2176 39.5508 37.3286 39.5508C37.2157 39.5506 37.1035 39.5683 36.9961 39.6033C36.3241 39.8203 35.4632 40.7793 35.4632 43.3343C35.4632 44.1323 34.8331 44.5908 34.3886 44.5908H31.9841C31.1651 44.5908 26.8986 44.3038 23.1186 40.3173C18.4916 35.4348 14.3266 25.6418 14.2916 25.5508C14.0291 24.9173 14.5716 24.5778 15.1631 24.5778H20.4656C21.1726 24.5778 21.4036 25.0083 21.5646 25.3898C21.7536 25.8343 22.4466 27.6018 23.5841 29.5898C25.4286 32.8308 26.5591 34.1468 27.4656 34.1468C27.6356 34.1448 27.8026 34.1015 27.9521 34.0208C29.1351 33.3628 28.9146 29.1453 28.8621 28.2703C28.8621 28.1058 28.8586 26.3838 28.2531 25.5578C27.8191 24.9593 27.0806 24.7318 26.6326 24.6478C26.814 24.3976 27.0529 24.1947 27.3291 24.0563C28.1411 23.6503 29.6041 23.5908 31.0566 23.5908H31.8651C33.4401 23.6118 33.8461 23.7133 34.4166 23.8568C35.5716 24.1333 35.5961 24.8788 35.4946 27.4303C35.4631 28.1548 35.4316 28.9738 35.4316 29.9398C35.4316 30.1498 35.4212 30.3738 35.4212 30.6118C35.3861 31.9103 35.3441 33.3838 36.2611 33.9893C36.3808 34.0643 36.519 34.1043 36.6601 34.1048C36.9786 34.1048 37.9376 34.1048 40.5346 29.6493C41.3356 28.2152 42.0316 26.7249 42.6171 25.1903C42.6696 25.0993 42.8236 24.8193 43.0056 24.7108C43.14 24.6423 43.2889 24.6075 43.4396 24.6093H49.6731C50.3521 24.6093 50.8176 24.7108 50.9051 24.9733C51.0591 25.3898 50.8771 26.6603 48.0316 30.5138L46.7611 32.1903C44.1816 35.5713 44.1816 35.7428 46.9221 38.3083Z" fill="black"/>
</svg>
