<svg width="49" height="48" viewBox="0 0 49 48" fill="none" xmlns="http://www.w3.org/2000/svg">
<path d="M28.4941 23.5823L22.792 20.9623C22.2944 20.7348 21.8856 20.9898 21.8856 21.5323V26.4673C21.8856 27.0098 22.2944 27.2648 22.792 27.0373L28.4916 24.4173C28.9917 24.1873 28.9917 23.8123 28.4941 23.5823ZM24.4244 -0.000244141C10.9637 -0.000244141 0.0519409 10.7448 0.0519409 23.9998C0.0519409 37.2548 10.9637 47.9998 24.4244 47.9998C37.8851 47.9998 48.7969 37.2548 48.7969 23.9998C48.7969 10.7448 37.8851 -0.000244141 24.4244 -0.000244141ZM24.4244 33.7498C11.9488 33.7498 11.7304 32.6423 11.7304 23.9998C11.7304 15.3573 11.9488 14.2498 24.4244 14.2498C36.9001 14.2498 37.1184 15.3573 37.1184 23.9998C37.1184 32.6423 36.9001 33.7498 24.4244 33.7498Z" fill="white"/>
</svg>
